<svg xmlns="http://www.w3.org/2000/svg" xmlns:xlink="http://www.w3.org/1999/xlink" viewBox="0 0 2644 1640" style="overflow:hidden">
  <defs>
    <linearGradient id="未命名的渐变_3" data-name="未命名的渐变 3" x1="20.5" y1="3.5" x2="20.5" y2="37.5" gradientUnits="userSpaceOnUse">
      <stop offset="0" stop-color="#cce0f4"/>
      <stop offset="0.12" stop-color="#c9dff3"/>
      <stop offset="0.21" stop-color="#bfdbf2"/>
      <stop offset="0.3" stop-color="#aed4ef"/>
      <stop offset="0.39" stop-color="#96cbeb"/>
      <stop offset="0.47" stop-color="#77bfe6"/>
      <stop offset="0.54" stop-color="#51b0df"/>
      <stop offset="0.62" stop-color="#249ed8"/>
      <stop offset="0.63" stop-color="#1e9cd7"/>
      <stop offset="0.87" stop-color="#0075be"/>
      <stop offset="0.99" stop-color="#005b97"/>
    </linearGradient>
    <symbol id="S1-换乘" data-name="S1-换乘" viewBox="0 0 41 41">
      <circle cx="20.5" cy="20.5" r="20" style="fill: #fff;stroke: #3fa9f5;stroke-miterlimit: 10;opacity: 0.7000000000000001"/>
      <g>
        <path d="M20.5,32.5a12,12,0,0,1,0-24" style="fill: #fff"/>
        <g>
          <path d="M14.32,30.79A12,12,0,0,1,20.5,8.5" style="fill: none;stroke: #ff3004;stroke-miterlimit: 10;stroke-width: 6px"/>
          <path d="M13.69,30.38c-2.36,1.24-4.32,4.52-5.16,7a24.53,24.53,0,0,1,12-4.84c-3.39-2.76-5.49-6.77-7.09-10.78C12.79,24.42,12.44,27.82,13.69,30.38Z" style="fill: #ff3004"/>
        </g>
      </g>
      <g>
        <path d="M20.5,8.5a12,12,0,0,1,0,24" style="fill: #fff"/>
        <g>
          <path d="M26.68,10.21A12,12,0,0,1,20.5,32.5" style="fill: none;stroke: #009;stroke-miterlimit: 10;stroke-width: 6px"/>
          <path d="M27.31,10.62c2.36-1.24,4.32-4.52,5.16-7a24.53,24.53,0,0,1-12,4.84c3.39,2.76,5.49,6.77,7.09,10.78C28.21,16.58,28.56,13.18,27.31,10.62Z" style="fill: #009"/>
        </g>
      </g>
    </symbol>
    <symbol id="S-1普通车站" data-name="S-1普通车站" viewBox="0 0 41 41">
      <circle cx="20.5" cy="20.5" r="20" style="fill: #fff;stroke: #3fa9f5;stroke-miterlimit: 10;opacity: 0.7000000000000001"/>
      <circle cx="20.5" cy="20.5" r="17" style="stroke: #3fa9f5;stroke-miterlimit: 10;fill: url(#未命名的渐变_3)"/>
    </symbol>
  </defs>
  <title></title>
  <g id="Background">
    <image id="ztCN" width="2644" height="1640" xlink:href="#"/>
  </g>
  <g id="Section_Down">
    <g>
      <line x1="654.88" y1="385.62" x2="602.61" y2="425.01" style="fill: none;stroke: lime;stroke-miterlimit: 10;stroke-width: 10px"/>
      <g>
        <line x1="658.44" y1="389.2" x2="618.58" y2="419.24" style="fill: none;stroke: lime;stroke-miterlimit: 10"/>
        <polygon points="607.3 427.73 618.3 409.26 619.42 418.6 628.09 422.25 607.3 427.73" style="fill: lime"/>
      </g>
    </g>
    <g>
      <path d="M736.18,322.44l0,.06-71.13,55.44" transform="translate(0 0)" style="fill: none;stroke: lime;stroke-miterlimit: 10;stroke-width: 10px"/>
      <g>
        <line x1="726.38" y1="336.5" x2="690.16" y2="364.73" style="fill: none;stroke: lime;stroke-miterlimit: 10"/>
        <polygon points="679.02 373.41 689.72 354.76 690.99 364.08 699.72 367.59 679.02 373.41" style="fill: lime"/>
      </g>
    </g>
    <g>
      <path d="M835.5,314.5c-8.76-6.36-34.22-23-46-23-11.21,0-41.36,21.56-53.32,30.94" transform="translate(0 0)" style="fill: none;stroke: lime;stroke-miterlimit: 10;stroke-width: 10px"/>
      <g>
        <path d="M820.5,310.46c-11.55-7.21-24.66-14-31-14-4.87,0-16,6.14-27.34,13.52" transform="translate(0 0)" style="fill: none;stroke: lime;stroke-miterlimit: 10"/>
        <polygon points="750.5 317.99 762.45 300.12 763.08 309.5 771.54 313.6 750.5 317.99" style="fill: lime"/>
      </g>
    </g>
    <g>
      <path d="M893.84,358.31,835.5,314.5" transform="translate(0 0)" style="fill: none;stroke: lime;stroke-miterlimit: 10;stroke-width: 10px"/>
      <g>
        <line x1="879.6" y1="353.87" x2="855.24" y2="335.57" style="fill: none;stroke: lime;stroke-miterlimit: 10"/>
        <polygon points="843.95 327.09 864.74 332.54 856.08 336.21 854.98 345.54 843.95 327.09" style="fill: lime"/>
      </g>
    </g>
    <g>
      <path d="M979.89,422.92l-86-64.61" transform="translate(0 0)" style="fill: none;stroke: lime;stroke-miterlimit: 10;stroke-width: 10px"/>
      <g>
        <line x1="963.43" y1="416.81" x2="915.71" y2="380.98" style="fill: none;stroke: lime;stroke-miterlimit: 10"/>
        <polygon points="904.41 372.5 925.21 377.94 916.55 381.61 915.45 390.95 904.41 372.5" style="fill: lime"/>
      </g>
    </g>
    <g>
      <path d="M1045.6,478.09l-65.71-55.17" transform="translate(0 0)" style="fill: none;stroke: lime;stroke-miterlimit: 10;stroke-width: 10px"/>
      <g>
        <path d="M1032,473.19l-34.08-28.61" transform="translate(0 0)" style="fill: none;stroke: lime;stroke-miterlimit: 10"/>
        <polygon points="987.1 435.5 1007.56 442.07 998.72 445.26 997.11 454.52 987.1 435.5" style="fill: lime"/>
      </g>
    </g>
    <g>
      <path d="M1094.5,519.14l-48.9-41.05" transform="translate(0 0)" style="fill: none;stroke: lime;stroke-miterlimit: 10;stroke-width: 10px"/>
      <g>
        <path d="M1082.45,515.55l-15.66-13.15" transform="translate(0 0)" style="fill: none;stroke: lime;stroke-miterlimit: 10"/>
        <polygon points="1055.97 493.33 1076.44 499.89 1067.6 503.08 1065.99 512.35 1055.97 493.33" style="fill: lime"/>
      </g>
    </g>
    <g>
      <path d="M1147.8,563.84c-4.21-3.51-26.38-22.1-53.3-44.7" transform="translate(0 0)" style="fill: none;stroke: lime;stroke-miterlimit: 10;stroke-width: 10px"/>
      <g>
        <path d="M1135.52,560.08l-20.42-17.13" transform="translate(0 0)" style="fill: none;stroke: lime;stroke-miterlimit: 10"/>
        <polygon points="1104.27 533.87 1124.74 540.43 1115.9 543.62 1114.3 552.89 1104.27 533.87" style="fill: lime"/>
      </g>
    </g>
    <g>
      <path d="M1186.67,615.5c-20.83-29-35.78-49.08-38.87-51.66" transform="translate(0 0)" style="fill: none;stroke: lime;stroke-miterlimit: 10;stroke-width: 10px"/>
      <g>
        <path d="M1175.5,608.59c-4.56-6.3-8.75-12.05-12.49-17.13" transform="translate(0 0)" style="fill: none;stroke: lime;stroke-miterlimit: 10"/>
        <polygon points="1154.59 580.14 1172.92 591.36 1163.58 592.37 1159.82 600.98 1154.59 580.14" style="fill: lime"/>
      </g>
    </g>
    <g>
      <path d="M1225.12,669.5c-13.92-19.7-27.07-38.17-38.45-54" transform="translate(0 0)" style="fill: none;stroke: lime;stroke-miterlimit: 10;stroke-width: 10px"/>
      <g>
        <path d="M1215,663.88q-6.7-9.46-13.08-18.42" transform="translate(0 0)" style="fill: none;stroke: lime;stroke-miterlimit: 10"/>
        <polygon points="1193.72 633.96 1211.88 645.47 1202.52 646.33 1198.63 654.89 1193.72 633.96" style="fill: lime"/>
      </g>
    </g>
    <g>
      <path d="M1275,740.5c-16.67-23.84-33.8-48.24-49.89-71" transform="translate(0 0)" style="fill: none;stroke: lime;stroke-miterlimit: 10;stroke-width: 10px"/>
      <g>
        <path d="M1263.07,732.17c-7.59-10.84-15.27-21.77-22.86-32.57" transform="translate(0 0)" style="fill: none;stroke: lime;stroke-miterlimit: 10"/>
        <polygon points="1232.07 688.05 1250.17 699.66 1240.8 700.47 1236.86 709.01 1232.07 688.05" style="fill: lime"/>
      </g>
    </g>
    <g>
      <path d="M1325.37,812.41a64.39,64.39,0,0,0-7.57-10.55l-.41-.51c-13-18.81-27.53-39.61-42.38-60.85" transform="translate(0 0)" style="fill: none;stroke: lime;stroke-miterlimit: 10;stroke-width: 10px"/>
      <g>
        <path d="M1311.25,801.27c-6.7-9.66-13.86-19.94-21.29-30.61" transform="translate(0 0)" style="fill: none;stroke: lime;stroke-miterlimit: 10"/>
        <polygon points="1281.88 759.08 1299.92 770.76 1290.55 771.53 1286.58 780.05 1281.88 759.08" style="fill: lime"/>
      </g>
    </g>
    <g>
      <path d="M1275,875.25c11.56-8.41,42.61-31.6,53-45.28,3.3-4.34.86-11.41-2.65-17.56" transform="translate(0 0)" style="fill: none;stroke: lime;stroke-miterlimit: 10;stroke-width: 10px"/>
      <g>
        <path d="M1282,863.89c10.42-7.88,23.14-18,32.4-26.66" transform="translate(0 0)" style="fill: none;stroke: lime;stroke-miterlimit: 10"/>
        <polygon points="1324.04 826.95 1316.05 846.9 1313.49 837.86 1304.36 835.6 1324.04 826.95" style="fill: lime"/>
      </g>
    </g>
    <g>
      <path d="M1273,1004.5c-15.67-27.76-29.57-54.08-36.94-71.79a25.66,25.66,0,0,1,4.43-27c12-13.64,29.3-26.68,30-27.23l.12-.08c.08-.06,1.72-1.21,4.39-3.16" transform="translate(0 0)" style="fill: none;stroke: lime;stroke-miterlimit: 10;stroke-width: 10px"/>
      <g>
        <path d="M1262.5,996.13c-13.15-23.74-24.53-45.75-31.09-61.49a30.63,30.63,0,0,1,5.29-32.2c2.88-3.28,6.06-6.52,9.24-9.57" transform="translate(0 0)" style="fill: none;stroke: lime;stroke-miterlimit: 10"/>
        <polygon points="1256.44 883.42 1247.2 902.83 1245.22 893.63 1236.26 890.8 1256.44 883.42" style="fill: lime"/>
      </g>
    </g>
    <g>
      <path d="M1314.68,1075.45c-13.14-21.6-28.09-46.82-41.71-71" transform="translate(0 0)" style="fill: none;stroke: lime;stroke-miterlimit: 10;stroke-width: 10px"/>
      <g>
        <path d="M1301.12,1062.76c-5.39-9-10.94-18.32-16.46-27.78" transform="translate(0 0)" style="fill: none;stroke: lime;stroke-miterlimit: 10"/>
        <polygon points="1277.57 1022.76 1294.67 1035.79 1285.27 1035.84 1280.66 1044.04 1277.57 1022.76" style="fill: lime"/>
      </g>
    </g>
    <g>
      <path d="M1392.36,1125.81l-21.79,5.83a24.86,24.86,0,0,1-27.3-10.46c-6.63-10.15-16.9-26.51-28.6-45.73" transform="translate(0 0)" style="fill: none;stroke: lime;stroke-miterlimit: 10;stroke-width: 10px"/>
      <g>
        <path d="M1378.5,1134.7l-6.63,1.77a29.85,29.85,0,0,1-32.78-12.56c-3.68-5.64-8.37-13-13.73-21.56" transform="translate(0 0)" style="fill: none;stroke: lime;stroke-miterlimit: 10"/>
        <polygon points="1317.91 1090.36 1335.41 1102.84 1326.01 1103.19 1321.66 1111.52 1317.91 1090.36" style="fill: lime"/>
      </g>
    </g>
    <g>
      <path d="M1671.44,1099.5l-8.17-32.77a15.1,15.1,0,0,0-15.86-11.44l-8.52.66-246.52,69.86" transform="translate(0 0)" style="fill: none;stroke: lime;stroke-miterlimit: 10;stroke-width: 10px"/>
      <g>
        <path d="M1663.29,1087.51l-4.88-19.57a10.12,10.12,0,0,0-10.62-7.66l-8,.62-220.08,62.37" transform="translate(0 0)" style="fill: none;stroke: lime;stroke-miterlimit: 10"/>
        <polygon points="1406.1 1127.11 1423.03 1113.86 1420.7 1122.97 1427.46 1129.51 1406.1 1127.11" style="fill: lime"/>
      </g>
    </g>
    <g>
      <line x1="1696.5" y1="1200.07" x2="1671.44" y2="1099.5" style="fill: none;stroke: lime;stroke-miterlimit: 10;stroke-width: 10px"/>
      <g>
        <line x1="1687.68" y1="1185.33" x2="1673.92" y2="1130.13" style="fill: none;stroke: lime;stroke-miterlimit: 10"/>
        <polygon points="1670.5 1116.42 1683.2 1133.77 1674.17 1131.15 1667.42 1137.7 1670.5 1116.42" style="fill: lime"/>
      </g>
    </g>
    <g>
      <line x1="1719.29" y1="1291.5" x2="1696.5" y2="1200.07" style="fill: none;stroke: lime;stroke-miterlimit: 10;stroke-width: 10px"/>
      <g>
        <line x1="1711.46" y1="1280.76" x2="1697.89" y2="1226.29" style="fill: none;stroke: lime;stroke-miterlimit: 10"/>
        <polygon points="1694.47 1212.59 1707.17 1229.93 1698.14 1227.32 1691.4 1233.87 1694.47 1212.59" style="fill: lime"/>
      </g>
    </g>
    <g>
      <line x1="1743.15" y1="1387.21" x2="1719.29" y2="1291.5" style="fill: none;stroke: lime;stroke-miterlimit: 10;stroke-width: 10px"/>
      <g>
        <line x1="1734.14" y1="1371.74" x2="1721.48" y2="1320.94" style="fill: none;stroke: lime;stroke-miterlimit: 10"/>
        <polygon points="1718.06 1307.23 1730.76 1324.58 1721.73 1321.96 1714.99 1328.51 1718.06 1307.23" style="fill: lime"/>
      </g>
    </g>
  </g>
  <g id="Section_Up">
    <g>
      <line x1="1729.69" y1="1291.87" x2="1752.61" y2="1383.81" style="fill: none;stroke: blue;stroke-miterlimit: 10;stroke-width: 10px"/>
      <g>
        <line x1="1738.34" y1="1305.88" x2="1750.39" y2="1354.26" style="fill: none;stroke: blue;stroke-miterlimit: 10"/>
        <polygon points="1753.81 1367.96 1741.11 1350.62 1750.14 1353.23 1756.88 1346.69 1753.81 1367.96" style="fill: blue"/>
      </g>
    </g>
    <g>
      <line x1="1704.38" y1="1190.32" x2="1729.69" y2="1291.87" style="fill: none;stroke: blue;stroke-miterlimit: 10;stroke-width: 10px"/>
      <g>
        <line x1="1714.31" y1="1209.47" x2="1726.84" y2="1259.78" style="fill: none;stroke: blue;stroke-miterlimit: 10"/>
        <polygon points="1730.26 1273.48 1717.56 1256.14 1726.59 1258.75 1733.34 1252.21 1730.26 1273.48" style="fill: blue"/>
      </g>
    </g>
    <g>
      <line x1="1681.4" y1="1098.14" x2="1704.38" y2="1190.32" style="fill: none;stroke: blue;stroke-miterlimit: 10;stroke-width: 10px"/>
      <g>
        <line x1="1690.03" y1="1112.08" x2="1703.06" y2="1164.34" style="fill: none;stroke: blue;stroke-miterlimit: 10"/>
        <polygon points="1706.47 1178.05 1693.77 1160.7 1702.8 1163.32 1709.55 1156.77 1706.47 1178.05" style="fill: blue"/>
      </g>
    </g>
    <g> 
      <path d="M1396.5,1114.24l240.62-68.19,9.52-.73a25.09,25.09,0,0,1,26.33,19l8.43,33.82" transform="translate(0 0)" style="fill: none;stroke: blue;stroke-miterlimit: 10;stroke-width: 10px"/>
      <g>
        <path d="M1402.5,1107.35l233.74-66.24,10-.77a30.07,30.07,0,0,1,31.56,22.77l1.66,6.68" transform="translate(0 0)" style="fill: none;stroke: blue;stroke-miterlimit: 10"/>
        <polygon points="1682.9 1083.48 1670.2 1066.14 1679.23 1068.76 1685.98 1062.21 1682.9 1083.48" style="fill: blue"/>
      </g>
    </g>
    <g>
      <path d="M1325.37,1073.78c10.74,17.57,20.1,32.46,26.29,41.94A14.88,14.88,0,0,0,1368,1122l21.72-5.81,6.79-1.93" transform="translate(0 0)" style="fill: none;stroke: blue;stroke-miterlimit: 10;stroke-width: 10px"/>
      <g>
        <path d="M1333.5,1077.49c9.08,14.76,16.93,27.21,22.34,35.5a9.92,9.92,0,0,0,3.81,3.43" transform="translate(0 0)" style="fill: none;stroke: blue;stroke-miterlimit: 10"/>
        <polygon points="1373.74 1115.27 1353.86 1123.46 1358.56 1115.31 1353.82 1107.2 1373.74 1115.27" style="fill: blue"/>
      </g>
    </g>
    <g>
      <path d="M1284.45,1004.51c13.54,23.82,28.19,48.44,40.92,69.27" transform="translate(0 0)" style="fill: none;stroke: blue;stroke-miterlimit: 10;stroke-width: 10px"/>
      <g>
        <path d="M1295.53,1013.81c5.56,9.64,11.22,19.28,16.79,28.64" transform="translate(0 0)" style="fill: none;stroke: blue;stroke-miterlimit: 10"/>
        <polygon points="1319.56 1054.57 1302.45 1041.56 1311.85 1041.49 1316.46 1033.3 1319.56 1054.57" style="fill: blue"/>
      </g>
    </g>
    <g>
      <path d="M1279.5,884.35l-3.05,2.18c-1.06.8-17.5,13.3-28.47,25.79a15.73,15.73,0,0,0-2.71,16.54c7.68,18.45,22.6,46.45,39.19,75.64" transform="translate(0 0)" style="fill: none;stroke: blue;stroke-miterlimit: 10;stroke-width: 10px"/>
      <g>
        <path d="M1269.2,898.83a176.74,176.74,0,0,0-17.47,16.8,10.76,10.76,0,0,0-1.85,11.31c5.07,12.17,13.32,28.56,23.14,46.7" transform="translate(0 0)" style="fill: none;stroke: blue;stroke-miterlimit: 10"/>
        <polygon points="1279.8 986.04 1263.25 972.32 1272.64 972.65 1277.59 964.66 1279.8 986.04" style="fill: blue"/>
      </g>
    </g>
    <g>
      <path d="M1335.2,809.5c4.25,8.22,6.93,18.43.78,26.53-11.79,15.52-45.89,40.69-56.48,48.33" transform="translate(0 0)" style="fill: none;stroke: blue;stroke-miterlimit: 10;stroke-width: 10px"/>
      <g>
        <path d="M1343.62,817.68c1.75,7.13,1.4,14.71-3.66,21.37-6.92,9.11-21.06,21.28-34,31.52" transform="translate(0 0)" style="fill: none;stroke: blue;stroke-miterlimit: 10"/>
        <polygon points="1294.84 879.22 1305.55 860.59 1306.81 869.9 1315.53 873.42 1294.84 879.22" style="fill: blue"/>
      </g>
    </g>
    <g> 
      <path d="M1283.56,735.28c20.56,29.41,36.77,52.75,41.87,60.11a73,73,0,0,1,9.78,14.11" transform="translate(0 0)" style="fill: none;stroke: blue;stroke-miterlimit: 10;stroke-width: 10px"/>
      <g>
        <path d="M1297.16,746.05c9.47,13.57,17.53,25.14,23.25,33.37" transform="translate(0 0)" style="fill: none;stroke: blue;stroke-miterlimit: 10"/>
        <polygon points="1328.48 791.01 1310.43 779.33 1319.8 778.56 1323.78 770.04 1328.48 791.01" style="fill: blue"/>
      </g>
    </g>
    <g>
      <path d="M1232.5,662.6c17.56,24.84,35.55,50.48,51.06,72.68" transform="translate(0 0)" style="fill: none;stroke: blue;stroke-miterlimit: 10;stroke-width: 10px"/>
      <g>
        <path d="M1248,675.94l.91,1.3c7.92,11.24,15.81,22.47,23.37,33.26" transform="translate(0 0)" style="fill: none;stroke: blue;stroke-miterlimit: 10"/>
        <polygon points="1280.4 722.07 1262.31 710.46 1271.68 709.65 1275.62 701.11 1280.4 722.07" style="fill: blue"/>
      </g>
    </g>
    <g>
      <path d="M1195.85,611.16c11.24,15.61,23.83,33.31,36.65,51.44" transform="translate(0 0)" style="fill: none;stroke: blue;stroke-miterlimit: 10;stroke-width: 10px"/>
      <g>
        <path d="M1210.09,622.44q5.72,8,12.33,17.31" transform="translate(0 0)" style="fill: none;stroke: blue;stroke-miterlimit: 10"/>
        <polygon points="1230.59 651.27 1212.43 639.77 1221.79 638.9 1225.68 630.34 1230.59 651.27" style="fill: blue"/>
      </g>
    </g>
    <g>
      <path d="M1154.2,556.16c3.79,3.16,20.26,25.3,41.65,55" transform="translate(0 0)" style="fill: none;stroke: blue;stroke-miterlimit: 10;stroke-width: 10px"/>
      <g>
        <path d="M1170.5,568.09c3.34,4.41,7.59,10.12,13,17.53" transform="translate(0 0)" style="fill: none;stroke: blue;stroke-miterlimit: 10"/>
        <polygon points="1191.83 597.04 1173.48 585.85 1182.83 584.82 1186.58 576.2 1191.83 597.04" style="fill: blue"/>
      </g>
    </g>
    <g>
      <path d="M1098.12,509.12c28.17,23.64,51.73,43.41,56.08,47" transform="translate(0 0)" style="fill: none;stroke: blue;stroke-miterlimit: 10;stroke-width: 10px"/>
      <g>
        <path d="M1118,519.25l19.29,16.18" transform="translate(0 0)" style="fill: none;stroke: blue;stroke-miterlimit: 10"/>
        <polygon points="1148.06 544.5 1127.59 537.94 1136.44 534.75 1138.04 525.48 1148.06 544.5" style="fill: blue"/>
      </g>
    </g>
    <g>
      <path d="M1050.5,469.15l47.62,40" transform="translate(0 0)" style="fill: none;stroke: blue;stroke-miterlimit: 10;stroke-width: 10px"/>
      <g>
        <path d="M1068.93,478.09l14.76,12.39" transform="translate(0 0)" style="fill: none;stroke: blue;stroke-miterlimit: 10"/>
        <polygon points="1094.5 499.56 1074.04 492.99 1082.88 489.8 1084.49 480.54 1094.5 499.56" style="fill: blue"/>
      </g>
    </g>
    <g>
      <path d="M986.22,415.17l64.29,54" transform="translate(0 0)" style="fill: none;stroke: blue;stroke-miterlimit: 10;stroke-width: 10px"/>
      <g>
        <path d="M1000.4,420.56l33.51,28.14" transform="translate(0 0)" style="fill: none;stroke: blue;stroke-miterlimit: 10"/>
        <polygon points="1044.73 457.78 1024.27 451.21 1033.11 448.02 1034.72 438.76 1044.73 457.78" style="fill: blue"/>
      </g>
    </g>
    <g>
      <path d="M899.69,350.19l86.42,64.89.1.09" transform="translate(0 0)" style="fill: none;stroke: blue;stroke-miterlimit: 10;stroke-width: 10px"/>
      <g>
        <line x1="915.08" y1="355.5" x2="964.65" y2="392.72" style="fill: none;stroke: blue;stroke-miterlimit: 10"/>
        <polygon points="975.94 401.19 955.15 395.75 963.8 392.08 964.91 382.75 975.94 401.19" style="fill: blue"/>
      </g>
    </g>
    <g>
      <path d="M841.44,306.46l58.25,43.74" transform="translate(0 0)" style="fill: none;stroke: blue;stroke-miterlimit: 10;stroke-width: 10px"/>
      <g>
        <line x1="853.85" y1="309.52" x2="881.15" y2="330.02" style="fill: none;stroke: blue;stroke-miterlimit: 10"/>
        <polygon points="892.45 338.5 871.65 333.06 880.31 329.39 881.41 320.05 892.45 338.5" style="fill: blue"/>
      </g>
    </g>
    <g>
      <path d="M729.6,314.91c1.09-.84,2.52-1.92,4.38-3.33,3.94-3,10.06-7.48,16.8-12,18.07-12.16,30.74-18.07,38.73-18.07,17.13,0,48.43,22.4,51.94,25" transform="translate(0 0)" style="fill: none;stroke: blue;stroke-miterlimit: 10;stroke-width: 10px"/>
      <g>
        <path d="M737.25,302.94c3.18-2.31,6.86-4.91,10.74-7.52,25.21-17,35.77-18.92,41.52-18.92,8.6,0,19.91,4.76,30.11,10.25" transform="translate(0 0)" style="fill: none;stroke: blue;stroke-miterlimit: 10"/>
        <polygon points="831.79 293.9 810.49 290.97 818.65 286.3 818.64 276.9 831.79 293.9" style="fill: blue"/>
      </g>
    </g>
    <g>
      <path d="M659,370l67.91-52.93c.56-.49,1.4-1.16,2.7-2.16" transform="translate(0 0)" style="fill: none;stroke: blue;stroke-miterlimit: 10;stroke-width: 10px"/>
      <g>
        <line x1="665.87" y1="358.31" x2="705.36" y2="327.52" style="fill: none;stroke: blue;stroke-miterlimit: 10"/>
        <polygon points="716.5 318.84 705.8 337.49 704.53 328.17 695.81 324.66 716.5 318.84" style="fill: blue"/>
      </g>
    </g>
    <g>
      <line x1="596.14" y1="417.36" x2="648.8" y2="377.68" style="fill: none;stroke: blue;stroke-miterlimit: 10;stroke-width: 10px"/>
      <g>
        <line x1="594.24" y1="412.53" x2="634.22" y2="382.41" style="fill: none;stroke: blue;stroke-miterlimit: 10"/>
        <polygon points="645.5 373.91 634.5 392.38 633.38 383.04 624.72 379.39 645.5 373.91" style="fill: blue"/>
      </g>
    </g>
  </g>
  <g id="Line_Total">
    <path d="M589,429l73-55,68-53c-.08,0,42.94-34.5,59.5-34.5,16,0,49,24,49,24L983,419s156,131,168,141,170.5,238.5,170.5,238.5,20,22,10.5,34.5c-13.43,17.67-58.5,49.5-58.5,49.5S1256,895.63,1244.22,909a20.82,20.82,0,0,0-3.57,21.76c19.12,45.94,82.6,150.55,106.82,187.66a19.91,19.91,0,0,0,21.82,8.36L1391,1121l247-70,9-.69a20.15,20.15,0,0,1,21.09,15.22L1748,1386" transform="translate(0 0)" style="fill: none;stroke: #fff;stroke-miterlimit: 10"/>
  </g>
  <g id="Station">
    <use id="S1-换乘-3" data-name="S1-换乘" width="41" height="41" transform="translate(1370 1101)" xlink:href="#S1-换乘"/>
    <use id="S-1普通车站-3" data-name="S-1普通车站" width="41" height="41" transform="translate(1259 984)" xlink:href="#S-1普通车站"/>
    <use width="41" height="41" transform="translate(1254.94 861) scale(1.02 1)" xlink:href="#S-1普通车站"/>
    <use width="41" height="41" transform="translate(642 355)" xlink:href="#S-1普通车站"/>
    <use width="41" height="41" transform="translate(713 299)" xlink:href="#S-1普通车站"/>
    <use width="41" height="41" transform="translate(817 291)" xlink:href="#S-1普通车站"/>
    <use width="41" height="41" transform="translate(877 335)" xlink:href="#S-1普通车站"/>
    <use width="41" height="41" transform="translate(962 398)" xlink:href="#S-1普通车站"/>
    <use width="41" height="41" transform="translate(1030 455)" xlink:href="#S-1普通车站"/>
    <use width="41" height="41" transform="translate(1133 541)" xlink:href="#S-1普通车站"/>
    <use width="41" height="41" transform="translate(1172 595)" xlink:href="#S-1普通车站"/>
    <use width="41" height="41" transform="translate(1212 649)" xlink:href="#S-1普通车站"/>
    <use width="41" height="41" transform="translate(1259 720)" xlink:href="#S-1普通车站"/>
    <use width="41" height="41" transform="translate(1307 789)" xlink:href="#S-1普通车站"/>
    <use width="41" height="41" transform="translate(1296 1052)" xlink:href="#S-1普通车站"/>
    <use width="41" height="41" transform="translate(1682 1176)" xlink:href="#S-1普通车站"/>
    <use width="41" height="41" transform="translate(1706 1271)" xlink:href="#S-1普通车站"/>
    <use width="41" height="41" transform="translate(1726 1362)" xlink:href="#S-1普通车站"/>
    <use id="S1-换乘-6" data-name="S1-换乘" width="41" height="41" transform="translate(1656 1079)" xlink:href="#S1-换乘"/>
    <use id="S1-换乘-9" data-name="S1-换乘" width="41" height="41" transform="translate(1080 496)" xlink:href="#S1-换乘"/>
    <use width="41" height="41" transform="translate(569 407)" xlink:href="#S-1普通车站"/>
  </g>
  <g id="Station_Name">
    <text transform="translate(1209 605)" style="font-size: 30px;font-family: SimHei, SimHei">三垟湿地站</text>
    <text transform="translate(854 299)" style="font-size: 30px;font-family: SimHei, SimHei">秀屿站</text>
    <text transform="translate(1348 1177)" style="font-size: 30px;font-family: SimHei, SimHei">机场站</text>
    <text transform="translate(1348 810)" style="font-size: 30px;font-family: SimHei, SimHei">科技城站</text>
    <text transform="translate(597 319)" style="font-size: 30px;font-family: SimHei, SimHei">动车南站</text>
    <text transform="translate(1121 511)" style="font-size: 30px;font-family: SimHei, SimHei">温州火车站</text>
    <text transform="translate(999 413)" style="font-size: 30px;font-family: SimHei, SimHei">德政站</text>
    <text transform="translate(553 375)" style="font-size: 30px;font-family: SimHei, SimHei">潘桥站</text>
    <text transform="translate(477 433)" style="font-size: 30px;font-family: SimHei, SimHei">桐岭站</text>
    <text transform="translate(914 350)" style="font-size: 30px;font-family: SimHei, SimHei">新桥站</text>
    <text transform="translate(1067 461)" style="font-size: 30px;font-family: SimHei, SimHei">龙霞路站</text>
    <text transform="translate(1173 556)" style="font-size: 30px;font-family: SimHei, SimHei">惠民路站</text>
    <text transform="translate(1251 669)" style="font-size: 30px;font-family: SimHei, SimHei">文昌路站</text>
    <text transform="translate(1299 735)" style="font-size: 30px;font-family: SimHei, SimHei">龙腾路站</text>
    <text transform="translate(1299 902)" style="font-size: 30px;font-family: SimHei, SimHei">瑶溪站</text>
    <text transform="translate(1293 994)" style="font-size: 30px;font-family: SimHei, SimHei">奥体中心站</text>
    <text transform="translate(1333 1062)" style="font-size: 30px;font-family: SimHei, SimHei">永中站</text>
    <text transform="translate(1727 1196)" style="font-size: 30px;font-family: SimHei, SimHei">瓯江口站</text>
    <text transform="translate(1702 1099)" style="font-size: 30px;font-family: SimHei, SimHei">灵昆站</text>
    <text transform="translate(1749 1291)" style="font-size: 30px;font-family: SimHei, SimHei">瓯华站</text>
    <text transform="translate(1767 1382)" style="font-size: 30px;font-family: SimHei, SimHei">双瓯大道站</text>
  </g>
</svg>
